<svg width="40" height="40" viewBox="0 0 40 40" fill="none" xmlns="http://www.w3.org/2000/svg">
<path d="M5.24975 10.1774L8.41595 25.1038C8.46495 25.3348 8.66891 25.5 8.90506 25.5H31.0949C31.3311 25.5 31.535 25.3348 31.5841 25.1038L34.7503 10.1774C34.8426 9.74212 34.3631 9.41212 33.9895 9.65385L26.9189 14.2289C26.6874 14.3787 26.3783 14.3128 26.2281 14.0816L20.4192 5.14496C20.222 4.84162 19.7779 4.84162 19.5808 5.14496L13.7719 14.0816C13.6217 14.3128 13.3126 14.3787 13.0811 14.2289L6.01049 9.65385C5.63692 9.41213 5.15742 9.74211 5.24975 10.1774Z" fill="#EBFF00"/>
<path d="M31 28.5H9C8.72386 28.5 8.5 28.7239 8.5 29V32C8.5 32.2761 8.72386 32.5 9 32.5H31C31.2761 32.5 31.5 32.2761 31.5 32V29C31.5 28.7239 31.2761 28.5 31 28.5Z" fill="#EBFF00"/>
<path d="M5.24975 10.1774L8.41595 25.1038C8.46495 25.3348 8.66891 25.5 8.90506 25.5H31.0949C31.3311 25.5 31.535 25.3348 31.5841 25.1038L34.7503 10.1774C34.8426 9.74212 34.3631 9.41212 33.9895 9.65385L26.9189 14.2289C26.6874 14.3787 26.3783 14.3128 26.2281 14.0816L20.4192 5.14496C20.222 4.84162 19.7779 4.84162 19.5808 5.14496L13.7719 14.0816C13.6217 14.3128 13.3126 14.3787 13.0811 14.2289L6.01049 9.65385C5.63692 9.41213 5.15742 9.74211 5.24975 10.1774Z" stroke="black" stroke-width="2"/>
<path d="M31 28.5H9C8.72386 28.5 8.5 28.7239 8.5 29V32C8.5 32.2761 8.72386 32.5 9 32.5H31C31.2761 32.5 31.5 32.2761 31.5 32V29C31.5 28.7239 31.2761 28.5 31 28.5Z" stroke="black" stroke-width="2"/>
</svg>
