<svg width="368" height="109" viewBox="0 0 368 109" fill="none" xmlns="http://www.w3.org/2000/svg">
<path d="M22.9996 32.797L30.2969 67.1654C30.493 68.0893 31.3088 68.75 32.2533 68.75H85.7467C86.6912 68.75 87.507 68.0893 87.7031 67.1654L95.0004 32.797C95.37 31.0562 93.4528 29.7359 91.9583 30.702L76.708 40.5603C75.7823 41.1587 74.547 40.8953 73.9458 39.9714L60.6764 19.5766C59.8876 18.3642 58.1124 18.3642 57.3236 19.5766L44.0542 39.9714C43.453 40.8953 42.2177 41.1587 41.292 40.5603L26.0417 30.702C24.5472 29.7359 22.63 31.0562 22.9996 32.797Z" fill="#EBFF00"/>
<path d="M85.3667 76.1429H32.6333C31.5288 76.1429 30.6333 77.0383 30.6333 78.1429V84C30.6333 85.1046 31.5288 86 32.6333 86H85.3667C86.4712 86 87.3667 85.1046 87.3667 84V78.1429C87.3667 77.0383 86.4712 76.1429 85.3667 76.1429Z" fill="#EBFF00"/>
<path d="M22.9996 32.797L30.2969 67.1654C30.493 68.0893 31.3088 68.75 32.2533 68.75H85.7467C86.6912 68.75 87.507 68.0893 87.7031 67.1654L95.0004 32.797C95.37 31.0562 93.4528 29.7359 91.9583 30.702L76.708 40.5603C75.7823 41.1587 74.547 40.8953 73.9458 39.9714L60.6764 19.5766C59.8876 18.3642 58.1124 18.3642 57.3236 19.5766L44.0542 39.9714C43.453 40.8953 42.2177 41.1587 41.292 40.5603L26.0417 30.702C24.5472 29.7359 22.63 31.0562 22.9996 32.797Z" stroke="black" stroke-width="6"/>
<path d="M85.3667 76.1429H32.6333C31.5288 76.1429 30.6333 77.0383 30.6333 78.1429V84C30.6333 85.1046 31.5288 86 32.6333 86H85.3667C86.4712 86 87.3667 85.1046 87.3667 84V78.1429C87.3667 77.0383 86.4712 76.1429 85.3667 76.1429Z" stroke="black" stroke-width="6"/>
<path d="M136.392 38.664H134.92C134.877 41.3093 134.835 43.976 134.792 46.664C134.792 49.352 134.792 52.0613 134.792 54.792V57.352H136.648C139.464 57.352 141.576 56.456 142.984 54.664C144.392 52.8293 145.096 50.4613 145.096 47.56C145.096 44.616 144.328 42.3973 142.792 40.904C141.299 39.4107 139.165 38.664 136.392 38.664ZM119.112 38.408V34.952H136.52C140.957 34.952 144.541 35.4853 147.272 36.552C150.003 37.576 151.987 39.048 153.224 40.968C154.504 42.8453 155.144 45.064 155.144 47.624C155.144 50.056 154.547 52.296 153.352 54.344C152.2 56.3493 150.28 57.9493 147.592 59.144C144.904 60.3387 141.235 60.936 136.584 60.936H134.792C134.792 62.7707 134.792 64.712 134.792 66.76C134.835 68.7653 134.877 70.8347 134.92 72.968L140.616 73.544V77H119.112V73.544L123.912 73.032C123.997 70.4293 124.04 67.8053 124.04 65.16C124.04 62.5147 124.04 59.848 124.04 57.16V54.792C124.04 52.1467 124.04 49.5013 124.04 46.856C124.04 44.168 123.997 41.5227 123.912 38.92L119.112 38.408ZM171.384 48.392C170.189 48.392 169.08 49.1387 168.056 50.632C167.075 52.0827 166.52 54.7707 166.392 58.696H171.832C173.368 58.696 174.392 58.3973 174.904 57.8C175.459 57.16 175.736 56.1147 175.736 54.664C175.736 52.5307 175.309 50.952 174.456 49.928C173.603 48.904 172.579 48.392 171.384 48.392ZM171.512 77.96C168.397 77.96 165.645 77.32 163.256 76.04C160.867 74.7173 158.989 72.84 157.624 70.408C156.259 67.9333 155.576 64.9893 155.576 61.576C155.576 57.992 156.365 54.984 157.944 52.552C159.565 50.0773 161.635 48.2213 164.152 46.984C166.669 45.704 169.293 45.064 172.024 45.064C174.84 45.064 177.229 45.6613 179.192 46.856C181.197 48.0507 182.712 49.672 183.736 51.72C184.76 53.7253 185.272 56.0293 185.272 58.632C185.272 59.8693 185.144 61 184.888 62.024H166.392C166.605 65.3947 167.523 67.8907 169.144 69.512C170.808 71.0907 172.749 71.88 174.968 71.88C176.717 71.88 178.211 71.56 179.448 70.92C180.685 70.2373 181.773 69.4053 182.712 68.424L184.952 70.472C183.629 72.9893 181.837 74.8667 179.576 76.104C177.315 77.3413 174.627 77.96 171.512 77.96ZM187.543 77V73.992L191.063 73.288C191.106 71.7093 191.127 70.024 191.127 68.232C191.127 66.44 191.127 64.8827 191.127 63.56V59.784C191.127 58.5893 191.106 57.608 191.063 56.84C191.063 56.072 191.042 55.368 190.999 54.728C190.999 54.0453 190.978 53.2773 190.935 52.424L187.031 51.848V49.352L199.639 45.064L200.791 45.768L201.367 53.32C202.263 50.5893 203.522 48.5413 205.143 47.176C206.764 45.768 208.364 45.064 209.943 45.064C211.351 45.064 212.567 45.4693 213.591 46.28C214.615 47.048 215.255 48.2213 215.511 49.8C215.468 51.464 215.02 52.7653 214.167 53.704C213.314 54.6 212.247 55.048 210.967 55.048C209.175 55.048 207.532 54.0453 206.039 52.04L205.655 51.528C204.716 52.424 203.842 53.5547 203.031 54.92C202.263 56.2853 201.708 57.7147 201.367 59.208V63.56C201.367 64.8827 201.367 66.3973 201.367 68.104C201.367 69.8107 201.388 71.4107 201.431 72.904L206.487 73.992V77H187.543ZM230.951 77.96C228.049 77.96 225.383 77.3627 222.951 76.168C220.561 74.9307 218.641 73.096 217.191 70.664C215.74 68.232 215.015 65.224 215.015 61.64C215.015 58.1413 215.783 55.1547 217.319 52.68C218.897 50.2053 220.988 48.328 223.591 47.048C226.236 45.7253 229.137 45.064 232.295 45.064C234.556 45.064 236.561 45.4907 238.311 46.344C240.06 47.1973 241.447 48.328 242.471 49.736C243.537 51.144 244.135 52.7013 244.263 54.408C243.58 56.6267 242.129 57.736 239.911 57.736C238.673 57.736 237.585 57.288 236.647 56.392C235.708 55.496 235.175 53.9173 235.047 51.656L234.599 48.456C234.428 48.4133 234.236 48.392 234.023 48.392C233.809 48.392 233.596 48.392 233.383 48.392C232.188 48.392 230.993 48.7973 229.799 49.608C228.604 50.4187 227.623 51.6987 226.855 53.448C226.087 55.1973 225.703 57.5227 225.703 60.424C225.703 64.0933 226.513 66.9307 228.135 68.936C229.799 70.8987 231.975 71.88 234.663 71.88C236.199 71.88 237.543 71.56 238.695 70.92C239.847 70.2373 240.892 69.3627 241.831 68.296L244.071 70.28C242.833 72.8827 241.084 74.824 238.823 76.104C236.604 77.3413 233.98 77.96 230.951 77.96ZM246.675 77V73.992L250.131 73.224C250.174 71.688 250.195 70.024 250.195 68.232C250.195 66.44 250.195 64.8827 250.195 63.56V60.488C250.195 58.7387 250.174 57.288 250.131 56.136C250.131 54.9413 250.088 53.704 250.003 52.424L246.035 51.848V49.352L259.475 45.064L260.563 45.768L260.371 55.048V63.56C260.371 64.8827 260.371 66.4613 260.371 68.296C260.371 70.088 260.392 71.7733 260.435 73.352L263.635 73.992V77H246.675ZM255.187 40.328C253.694 40.328 252.414 39.8587 251.347 38.92C250.28 37.9387 249.747 36.7227 249.747 35.272C249.747 33.7787 250.28 32.5627 251.347 31.624C252.414 30.6427 253.694 30.152 255.187 30.152C256.68 30.152 257.96 30.6427 259.027 31.624C260.094 32.5627 260.627 33.7787 260.627 35.272C260.627 36.7227 260.094 37.9387 259.027 38.92C257.96 39.8587 256.68 40.328 255.187 40.328ZM284.473 48.904V46.088H296.569V48.904L292.857 49.608L282.297 77.128H277.433L265.913 49.544L262.777 48.904V46.088H280.953V48.904L276.921 49.736L282.937 66.12L288.505 49.672L284.473 48.904ZM320.568 77.896C316.856 77.896 314.509 76.36 313.528 73.288C312.162 74.7387 310.84 75.8907 309.56 76.744C308.322 77.5547 306.594 77.96 304.376 77.96C301.901 77.96 299.874 77.256 298.296 75.848C296.76 74.44 295.992 72.4133 295.992 69.768C295.992 68.232 296.333 66.8453 297.016 65.608C297.698 64.3707 298.936 63.2187 300.728 62.152C302.52 61.0853 305.058 60.0827 308.344 59.144C308.984 58.9307 309.73 58.7173 310.584 58.504C311.437 58.2907 312.312 58.0773 313.208 57.864V55.752C313.208 52.8933 312.845 50.952 312.12 49.928C311.437 48.904 310.072 48.392 308.024 48.392C307.725 48.392 307.448 48.392 307.192 48.392C306.936 48.392 306.637 48.4133 306.296 48.456L305.976 51.272C305.933 53.3627 305.442 54.8773 304.504 55.816C303.608 56.7547 302.541 57.224 301.304 57.224C298.957 57.224 297.528 56.1573 297.016 54.024C297.186 51.3787 298.53 49.224 301.048 47.56C303.565 45.896 307.128 45.064 311.736 45.064C315.832 45.064 318.754 46.0027 320.504 47.88C322.296 49.7573 323.192 52.8507 323.192 57.16V71.496C323.192 72.7333 323.661 73.352 324.6 73.352C324.941 73.352 325.261 73.2667 325.56 73.096C325.858 72.8827 326.178 72.4987 326.52 71.944L328.248 73.096C327.48 74.8027 326.477 76.04 325.24 76.808C324.045 77.5333 322.488 77.896 320.568 77.896ZM305.464 68.104C305.464 69.6827 305.826 70.856 306.552 71.624C307.32 72.392 308.237 72.776 309.304 72.776C309.773 72.776 310.264 72.6693 310.776 72.456C311.288 72.2427 312.098 71.752 313.208 70.984V60.616C312.653 60.7867 312.098 60.9787 311.544 61.192C311.032 61.3627 310.584 61.5333 310.2 61.704C308.749 62.3013 307.597 63.1547 306.744 64.264C305.89 65.3307 305.464 66.6107 305.464 68.104ZM328.391 77V73.992L331.911 73.224C331.954 71.6027 331.975 69.9813 331.975 68.36C332.018 66.7387 332.039 65.1387 332.039 63.56V36.744L328.071 36.104V33.416L341.511 30.536L342.535 31.176L342.279 40.136V63.56C342.279 65.1813 342.279 66.8027 342.279 68.424C342.322 70.0453 342.365 71.6667 342.407 73.288L345.927 73.992V77H328.391Z" fill="black"/>
</svg>
